<svg xmlns="http://www.w3.org/2000/svg" xmlns:xlink="http://www.w3.org/1999/xlink" preserveAspectRatio="xMidYMid" width="124" height="23" viewBox="0 0 124 23">
  <path d="M18.691,0.003 C18.691,0.003 13.536,0.003 13.536,0.003 C13.536,0.003 13.536,13.206 13.536,13.206 C13.536,17.126 12.044,18.970 9.330,18.970 C6.685,18.970 5.193,17.027 5.193,13.206 C5.193,13.206 5.193,0.003 5.193,0.003 C5.193,0.003 0.003,0.003 0.003,0.003 C0.003,0.003 0.003,12.812 0.003,12.812 C0.003,19.892 3.395,22.987 9.161,22.987 C15.130,22.987 18.691,19.728 18.691,12.878 C18.691,12.878 18.691,0.003 18.691,0.003 ZM122.731,0.000 C122.731,0.000 115.976,0.000 115.976,0.000 C115.976,0.000 113.532,7.644 113.532,7.644 C112.785,10.153 112.004,13.130 111.359,15.741 C111.359,15.741 111.257,15.741 111.257,15.741 C110.748,13.098 110.035,10.253 109.322,7.676 C109.322,7.676 107.082,0.000 107.082,0.000 C107.082,0.000 100.191,0.000 100.191,0.000 C100.191,0.000 98.997,18.582 98.997,18.582 C98.997,18.582 93.249,0.007 93.249,0.007 C93.249,0.007 86.512,0.007 86.512,0.007 C86.512,0.007 80.859,18.537 80.859,18.537 C80.859,18.537 72.181,18.537 72.181,18.537 C72.181,18.537 72.181,13.184 72.181,13.184 C72.181,13.184 80.597,13.184 80.597,13.184 C80.597,13.184 80.597,9.035 80.597,9.035 C80.597,9.035 72.181,9.035 72.181,9.035 C72.181,9.035 72.181,4.352 72.181,4.352 C72.181,4.352 81.106,4.352 81.106,4.352 C81.106,4.352 81.106,0.007 81.106,0.007 C81.106,0.007 66.988,0.007 66.988,0.007 C66.988,0.007 66.988,4.317 66.988,4.317 C66.641,3.281 66.029,2.432 65.180,1.775 C63.524,0.503 61.107,0.001 57.656,0.001 C55.129,0.001 31.640,0.001 29.373,0.001 C23.893,0.001 20.584,2.806 20.584,6.608 C20.584,9.847 23.100,11.897 26.960,13.186 C29.751,14.145 30.854,14.939 30.854,16.327 C30.854,17.781 29.580,18.740 27.167,18.740 C24.927,18.740 22.432,18.601 19.897,18.601 C19.131,20.654 18.020,21.903 16.582,22.836 C22.021,22.836 24.203,22.866 26.857,22.866 C33.232,22.866 36.230,19.699 36.230,15.963 C36.230,12.823 34.300,10.773 30.200,9.318 C27.201,8.228 25.892,7.600 25.892,6.178 C25.892,5.020 26.995,4.421 29.269,4.421 C31.544,4.421 30.494,4.431 34.463,4.431 C34.463,4.431 40.517,4.431 40.517,4.431 C40.517,4.431 40.517,22.718 40.517,22.718 C40.517,22.718 45.634,22.718 45.634,22.718 C45.634,22.718 45.634,4.431 45.634,4.431 C45.634,4.431 50.649,4.431 50.649,4.431 C50.649,4.431 50.649,22.718 50.649,22.718 C50.649,22.718 55.861,22.718 55.861,22.718 C55.861,22.718 55.861,13.853 55.861,13.853 C55.861,13.853 57.449,13.853 57.449,13.853 C59.589,13.887 60.589,14.656 61.211,17.467 C61.902,20.243 62.453,22.050 62.834,22.718 C62.834,22.718 84.895,22.718 84.895,22.718 C84.895,22.718 86.512,16.931 86.512,16.931 C86.512,16.931 93.013,16.931 93.013,16.931 C93.013,16.931 94.764,22.718 94.764,22.718 C94.764,22.718 103.518,22.718 103.518,22.718 C103.518,22.718 103.924,14.135 103.924,14.135 C104.095,11.324 104.196,7.844 104.332,4.800 C104.332,4.800 104.401,4.800 104.401,4.800 C104.943,7.744 105.724,10.957 106.471,13.633 C106.471,13.633 108.915,22.331 108.915,22.331 C108.915,22.331 112.955,22.331 112.955,22.331 C112.955,22.331 115.738,13.532 115.738,13.532 C116.621,10.889 117.572,7.676 118.284,4.800 C118.284,4.800 118.386,4.800 118.386,4.800 C118.386,8.078 118.488,11.358 118.590,14.068 C118.590,14.068 118.929,22.718 118.929,22.718 C118.929,22.718 123.987,22.718 123.987,22.718 C123.987,22.718 122.731,0.000 122.731,0.000 ZM57.932,10.172 C57.932,10.172 55.861,10.172 55.861,10.172 C55.861,10.172 55.861,3.950 55.861,3.950 C56.241,3.882 56.966,3.782 58.243,3.782 C60.658,3.816 62.108,4.853 62.108,6.928 C62.108,8.901 60.555,10.172 57.932,10.172 ZM66.988,18.780 C66.771,17.984 66.545,17.154 66.319,16.362 C65.732,14.287 64.835,12.782 63.213,12.147 C63.213,12.147 63.213,12.046 63.213,12.046 C64.737,11.512 66.319,10.240 66.988,8.396 C66.988,8.396 66.988,18.780 66.988,18.780 ZM87.253,13.117 C87.253,13.117 88.600,8.333 88.600,8.333 C88.971,7.028 89.308,5.321 89.645,3.983 C89.645,3.983 89.712,3.983 89.712,3.983 C90.049,5.321 90.453,6.994 90.857,8.333 C90.857,8.333 92.273,13.117 92.273,13.117 C92.273,13.117 87.253,13.117 87.253,13.117 Z" fill="white" fill-rule="evenodd"/>
</svg>
