<svg xmlns="http://www.w3.org/2000/svg" xmlns:xlink="http://www.w3.org/1999/xlink" preserveAspectRatio="xMidYMid" width="36" height="36" viewBox="0 0 36 36">
  <path d="M29.772,0.001 C29.772,0.001 6.322,0.001 6.322,0.001 C2.846,0.009 0.007,2.812 0.000,6.288 C0.000,6.288 0.000,29.665 0.000,29.665 C0.001,33.151 2.851,36.000 6.338,36.000 C6.338,36.000 29.700,36.000 29.700,36.000 C33.187,36.000 36.000,33.150 36.000,29.663 C36.000,29.663 36.000,6.300 36.000,6.300 C36.000,2.837 33.226,0.039 29.772,0.001 ZM26.992,21.176 C26.992,24.015 26.278,26.191 24.746,27.704 C23.215,29.218 20.852,30.007 17.999,30.007 C15.147,30.007 12.785,29.218 11.254,27.704 C9.722,26.191 9.007,24.015 9.007,21.176 C9.007,21.176 9.007,8.000 9.007,8.000 C9.007,8.000 14.980,8.000 14.980,8.000 C14.980,8.000 14.980,20.713 14.980,20.713 C14.980,22.247 15.259,23.361 15.812,24.053 C16.365,24.746 16.921,25.007 17.999,25.007 C19.078,25.007 19.604,24.746 20.157,24.053 C20.710,23.361 20.988,22.247 20.988,20.713 C20.988,20.713 20.988,8.000 20.988,8.000 C20.988,8.000 26.992,8.000 26.992,8.000 C26.992,8.000 26.992,21.176 26.992,21.176 Z" fill="#fff" fill-rule="evenodd"/>
</svg>